<svg width="100%" height="400" viewBox="0 0 300 400" class="overflow-visible"><defs><linearGradient id="skyGradient" x1="0%" y1="0%" x2="0%" y2="100%"><stop offset="0%" stop-color="#87CEEB"></stop><stop offset="100%" stop-color="#E0F7FA"></stop></linearGradient><linearGradient id="groundGradient" x1="0%" y1="0%" x2="0%" y2="100%"><stop offset="0%" stop-color="#8B5A2B"></stop><stop offset="100%" stop-color="#6B4226"></stop></linearGradient><linearGradient id="trunkGradient" x1="0%" y1="0%" x2="100%" y2="0%"><stop offset="0%" stop-color="#6B4226"></stop><stop offset="50%" stop-color="#8B5A2B"></stop><stop offset="100%" stop-color="#6B4226"></stop></linearGradient><radialGradient id="groundRadial" cx="50%" cy="50%" r="50%" fx="50%" fy="50%"><stop offset="0%" stop-color="#8B5A2B"></stop><stop offset="100%" stop-color="#6B4226"></stop></radialGradient></defs><rect x="0" y="0" width="300" height="400" fill="url(#skyGradient)"></rect><ellipse cx="150" cy="350" rx="130" ry="20" fill="url(#groundRadial)"></ellipse><path d="M 73.75499877762891 350 Q 72.11967131031977 343.61938621020727 73.75499877762891 337.23877242041453 Q 75.39032624493805 343.61938621020727 73.75499877762891 350" fill="hsl(104.2325856707938, 70%, 33.14132305275449%)"></path><path d="M 163.32732757322077 350 Q 160.6033977614695 342.6341174540709 163.32732757322077 335.26823490814184 Q 166.05125738497205 342.6341174540709 163.32732757322077 350" fill="hsl(139.0203469282547, 70%, 33.285696647283835%)"></path><path d="M 148.98931207163338 350 Q 146.3777993986119 343.8257301397512 148.98931207163338 337.65146027950243 Q 151.60082474465486 343.8257301397512 148.98931207163338 350" fill="hsl(127.92173268125262, 70%, 37.87997029873906%)"></path><path d="M 100.37456956532607 350 Q 97.84511508484438 344.8407657898439 100.37456956532607 339.6815315796877 Q 102.90402404580776 344.8407657898439 100.37456956532607 350" fill="hsl(115.04127106873422, 70%, 43.93373744434821%)"></path><path d="M 145.04176785655432 350 Q 143.92540761669193 345.9482261432427 145.04176785655432 341.89645228648544 Q 146.1581280964167 345.9482261432427 145.04176785655432 350" fill="hsl(123.93620894572223, 70%, 46.74850048223654%)"></path><path d="M 128.56584002737884 350 Q 126.25635757774666 343.84797630821936 128.56584002737884 337.6959526164387 Q 130.87532247701103 343.84797630821936 128.56584002737884 350" fill="hsl(135.9109304975327, 70%, 45.80738432810605%)"></path><path d="M 188.77011818183598 350 Q 186.91751581787682 345.66537430950683 188.77011818183598 341.33074861901366 Q 190.62272054579515 345.66537430950683 188.77011818183598 350" fill="hsl(104.30599293221957, 70%, 39.3825246273059%)"></path><path d="M 106.73787994663795 350 Q 104.50249673782572 345.3656897746102 106.73787994663795 340.73137954922043 Q 108.97326315545017 345.3656897746102 106.73787994663795 350" fill="hsl(123.49227624109466, 70%, 46.97575964723079%)"></path><path d="M 176.52325470719728 350 Q 174.34707548927136 347.38884121869154 176.52325470719728 344.7776824373831 Q 178.6994339251232 347.38884121869154 176.52325470719728 350" fill="hsl(121.4658312939102, 70%, 42.61411605961101%)"></path><path d="M 227.14025477515202 350 Q 225.61911516503253 345.8679985621129 227.14025477515202 341.7359971242258 Q 228.6613943852715 345.8679985621129 227.14025477515202 350" fill="hsl(107.25975631358813, 70%, 33.138795541010985%)"></path><path d="M 172.9658748249234 350 Q 171.19476742744183 346.70545302820466 172.9658748249234 343.4109060564093 Q 174.73698222240495 346.70545302820466 172.9658748249234 350" fill="hsl(104.07717853826543, 70%, 42.302176708919966%)"></path><path d="M 69.96261169072646 350 Q 68.17785189152364 345.7851536124686 69.96261169072646 341.5703072249372 Q 71.74737148992928 345.7851536124686 69.96261169072646 350" fill="hsl(139.08722299320732, 70%, 35.552081701271646%)"></path><path d="M 226.60396985748727 350 Q 225.0789170011883 342.9169408610701 226.60396985748727 335.83388172214023 Q 228.12902271378624 342.9169408610701 226.60396985748727 350" fill="hsl(139.4323508032808, 70%, 44.78527547941265%)"></path><path d="M 83.01926659130862 350 Q 80.38521734601093 344.0175007905214 83.01926659130862 338.03500158104276 Q 85.65331583660631 344.0175007905214 83.01926659130862 350" fill="hsl(139.25767228666768, 70%, 47.889999886197785%)"></path><path d="M 155.21732805632985 350 Q 152.62569274710592 347.0893272959201 155.21732805632985 344.1786545918402 Q 157.80896336555378 347.0893272959201 155.21732805632985 350" fill="hsl(129.25627420666558, 70%, 44.33513350765389%)"></path><path d="M 130.7864050527195 350 Q 128.8389769820214 346.12181211235065 130.7864050527195 342.24362422470136 Q 132.73383312341758 346.12181211235065 130.7864050527195 350" fill="hsl(132.91085685518047, 70%, 31.1937919691246%)"></path><path d="M 191.86035175310775 350 Q 190.57640224408516 346.90543792062914 191.86035175310775 343.8108758412583 Q 193.14430126213034 346.90543792062914 191.86035175310775 350" fill="hsl(132.3196885910831, 70%, 36.45956926215674%)"></path><path d="M 124.92834959373225 350 Q 122.7835684403575 342.991600084185 124.92834959373225 335.98320016837 Q 127.073130747107 342.991600084185 124.92834959373225 350" fill="hsl(118.27609063446104, 70%, 41.64132702620969%)"></path><path d="M 95.12269126298283 350 Q 92.4979417949658 343.6057571050943 95.12269126298283 337.2115142101886 Q 97.74744073099986 343.6057571050943 95.12269126298283 350" fill="hsl(124.21521459585333, 70%, 49.289599991388485%)"></path><path d="M 150.16369634814953 350 Q 148.81478084357076 346.89802026361616 150.16369634814953 343.7960405272323 Q 151.5126118527283 346.89802026361616 150.16369634814953 350" fill="hsl(102.06377147335586, 70%, 36.86721196843354%)"></path><path d="
    M 138 350
    Q 138 251.09999999999997 140 73.29999999999995
    L 145 53.299999999999955
    L 155 53.299999999999955
    L 160 73.29999999999995
    Q 162 251.09999999999997 162 350
    Z
  " fill="url(#trunkGradient)"></path><path d="
        M 154.57115043874614 264.0541777724759
        Q 205.68475865866787 232.65235211312367 244.19972972873342 186.23605536863946
        L 241.62857928998727 183.17187759616357
        Q 202.08514804442325 228.36250323165737 149.42884956125386 257.9258222275241
        Z
      " fill="#6B4226"></path><path d="
        M 150.24975663390288 228.63884444908356
        Q 103.37201094902149 203.72849588159892 69.57499312126116 163.2291428966431
        L 67.32523648735828 165.9102984475595
        Q 100.22235166155745 207.48211365288194 145.75024336609712 234.00115555091642
        Z
      " fill="#6B4226"></path><path d="
        M 152.9283628290596 189.1131333293569
        Q 191.58496279884415 165.94478630640222 220.14979729655005 130.74954152647956
        L 218.22143446749044 128.45140819712265
        Q 188.8852548381607 162.72739964530254 149.0716371709404 184.51686667064303
        Z
      " fill="#6B4226"></path><path d="
        M 149.85505035831417 169.6307684480352
        Q 112.0115240308172 165.16840681432117 79.72582503236232 145.43604009283615
        L 78.87077467404815 147.7852716448009
        Q 110.81445352917736 168.45733098707186 148.14494964168583 174.32923155196477
        Z
      " fill="#6B4226"></path><path d="
        M 151.05654565435174 129.74076946759158
        Q 186.88798158021217 118.82503056722581 217.75365293061938 97.26017516917938
        L 216.69710727626764 94.99440570158777
        Q 185.40881766411974 115.65295331259753 148.94345434564826 125.20923053240834
        Z
      " fill="#6B4226"></path><path d="
        M 150.51763809020505 110.70814834742183
        Q 120.15041312653175 109.4040977327379 92.9407805131092 96.31575203732733
        L 92.42314242290415 98.24760368990546
        Q 119.42571980024469 112.10869004634729 149.48236190979495 114.57185165257809
        Z
      " fill="#6B4226"></path><path d="
        M 150.5130302149885 84.37953893117883
        Q 172.63771176783305 80.10464449561437 192.0775351955711 68.45316298688051
        L 191.56450498058263 67.04362405570164
        Q 171.91946946684916 78.13128999196397 149.4869697850115 81.56046106882111
        Z
      " fill="#6B4226"></path><path d="
        M 150.2604722665004 66.65778837048168
        Q 131.95619025675924 67.94889801255931 115.06714089500353 61.21382446758744
        L 114.80666862850315 62.69103609710575
        Q 131.59152908365868 70.01699429388495 149.7395277334996 69.6122116295183
        Z
      " fill="#6B4226"></path><path d="
        M 244.32369344053922 185.21699669739002
        Q 254.3307128628977 165.17863801883203 258.8405304536587 143.13946150181891
        L 257.4309915224798 142.62643128683044
        Q 252.3573583592473 164.46039571784814 241.50461557818147 184.190936267413
        Z
      " fill="#6B4226"></path><path d="
        M 69.85965373548858 164.0566904571128
        Q 59.00691095442274 144.32614990754794 53.93327779119023 122.49218547653021
        L 52.52373886001137 123.00521569151871
        Q 57.03355645077233 145.04439220853183 67.04057587313086 165.08275088708982
        Z
      " fill="#6B4226"></path><path d="
      M 150 53.299999999999955
      Q 157.4725 53.299999999999955 164.945 53.299999999999955
      Q 172.4175 53.299999999999955 179.89 53.299999999999955
      Q 162.94274965955844 60.77249999999995 150 53.299999999999955
      Z
    " fill="hsl(117.1577117415404, 81.84184434949987%, 58.56726489921147%)"></path><path d="
      M 150 53.299999999999955
      Q 155.28385542241648 58.583855422416434 160.56771084483296 63.86771084483291
      Q 165.85156626724944 69.15156626724938 171.13542168966592 63.86771084483291
      Q 153.86805062905717 67.73576147389008 150 53.299999999999955
      Z
    " fill="hsl(134.40834950749922, 88.59501987330144%, 55.94206510330972%)"></path><path d="
      M 150 53.299999999999955
      Q 150 60.77249999999995 150 68.24499999999995
      Q 150 75.71749999999996 150 68.24499999999995
      Q 142.5275 66.2427496595584 150 53.299999999999955
      Z
    " fill="hsl(126.05517515519807, 87.66763755044794%, 41.517139892621834%)"></path><path d="
      M 150 53.299999999999955
      Q 144.71614457758352 58.583855422416434 139.43228915516704 63.86771084483291
      Q 134.14843373275056 69.1515662672494 128.86457831033408 63.86771084483291
      Q 135.56423852610988 57.168050629057134 150 53.299999999999955
      Z
    " fill="hsl(139.30429121030656, 71.57624957937563%, 59.24665383945293%)"></path><path d="
      M 150 53.299999999999955
      Q 142.5275 53.299999999999955 135.055 53.299999999999955
      Q 127.5825 53.299999999999955 120.11 53.299999999999955
      Q 137.05725034044156 45.82749999999996 150 53.299999999999955
      Z
    " fill="hsl(142.79947853856186, 77.85017076685654%, 45.00831355845518%)"></path><path d="
      M 150 53.299999999999955
      Q 144.71614457758352 48.016144577583475 139.43228915516704 42.732289155167
      Q 134.14843373275056 37.44843373275053 128.86457831033408 42.732289155167
      Q 146.13194937094283 38.86423852610983 150 53.299999999999955
      Z
    " fill="hsl(113.3503350814451, 82.0741625120983%, 44.37054328666126%)"></path><path d="
      M 150 53.299999999999955
      Q 150 45.82749999999996 150 38.354999999999954
      Q 150 30.882499999999954 150 38.354999999999954
      Q 157.4725 40.35725034044152 150 53.299999999999955
      Z
    " fill="hsl(137.87773190235794, 72.79157793268367%, 45.112509286316566%)"></path><path d="
      M 150 53.299999999999955
      Q 155.28385542241648 48.016144577583475 160.56771084483296 42.732289155166995
      Q 165.85156626724944 37.44843373275052 171.1354216896659 42.732289155166995
      Q 164.43576147389012 49.43194937094278 150 53.299999999999955
      Z
    " fill="hsl(126.53769513801066, 71.84141456346218%, 43.04141365604834%)"></path><path d="
      M 242.91415450936034 184.7039664824015
      Q 247.18598827483922 180.52211040165045 251.45782204031806 176.3402543208994
      Q 255.72965580579694 172.1583982401483 260.0014895712758 176.3402543208994
      Q 254.49504371340907 181.73261304607868 242.91415450936034 184.7039664824015
      Z
    " fill="hsl(114.26006199082863, 82.11695176665594%, 50.952148553159915%)"></path><path d="
      M 242.91415450936034 184.7039664824015
      Q 248.69060070018648 183.16476103656578 254.4670468910126 181.62555559073004
      Q 260.2434930818387 180.08635014489434 266.01993927266483 181.62555559073004
      Q 254.45845824489462 187.81443063775345 242.91415450936034 184.7039664824015
      Z
    " fill="hsl(141.36777728688887, 70.2061393985831%, 57.6934293667086%)"></path><path d="
      M 242.91415450936034 184.7039664824015
      Q 248.36921499778038 182.25880819147665 253.8242754862004 179.81364990055175
      Q 259.27933597462044 177.3684916096269 264.73439646304047 179.81364990055175
      Q 254.8077547245902 185.92388857839137 242.91415450936034 184.7039664824015
      Z
    " fill="hsl(117.83690966617908, 81.22692225692622%, 55.60763949837064%)"></path><path d="
      M 242.91415450936034 184.7039664824015
      Q 248.6046764337621 182.8724522924748 254.29519835816387 181.0409381025481
      Q 259.98572028256564 179.2094239126214 265.6762422069674 181.0409381025481
      Q 254.60194179393554 187.22221277506685 242.91415450936034 184.7039664824015
      Z
    " fill="hsl(116.99841599028875, 72.60886627385415%, 40.139627572171015%)"></path><path d="
      M 242.91415450936034 184.7039664824015
      Q 246.20189011421826 179.71124391925528 249.4896257190762 174.71852135610905
      Q 252.77736132393412 169.72579879296282 256.06509692879206 174.71852135610905
      Q 253.6014021819737 179.34405293979466 242.91415450936034 184.7039664824015
      Z
    " fill="hsl(138.26122067992043, 81.53363017802914%, 54.9748768734559%)"></path><path d="
      M 68.45011480430972 164.5697206721013
      Q 62.80880418450799 162.5918181237152 57.16749356470626 160.61391557532912
      Q 51.526182944904534 158.636013026943 45.884872325102805 160.61391557532912
      Q 60.65698073792135 155.5025823460749 68.45011480430972 164.5697206721013
      Z
    " fill="hsl(146.6726831734255, 74.90749586028838%, 50.26238045887245%)"></path><path d="
      M 68.45011480430972 164.5697206721013
      Q 65.69697444656722 159.26343174568865 62.943834088824715 153.95714281927602
      Q 60.19069373108222 148.65085389286338 57.43755337333972 153.95714281927602
      Q 68.98782475074401 152.625818294172 68.45011480430972 164.5697206721013
      Z
    " fill="hsl(112.82499047195395, 82.63320285785679%, 44.798129934746186%)"></path><path d="
      M 68.45011480430972 164.5697206721013
      Q 64.76220411760187 159.86485098560988 61.07429343089403 155.15998129911844
      Q 57.386382744186186 150.45511161262698 53.69847205747834 155.15998129911844
      Q 66.76733580764694 152.73273664539963 68.45011480430972 164.5697206721013
      Z
    " fill="hsl(122.60971008034772, 74.6938821525159%, 43.424213598012614%)"></path><path d="
      M 68.45011480430972 164.5697206721013
      Q 65.35591024908186 159.45480306079935 62.26170569385398 154.33988544949736
      Q 59.16750113862612 149.22496783819537 56.073296583398246 154.33988544949736
      Q 68.20571291694597 152.61621893756958 68.45011480430972 164.5697206721013
      Z
    " fill="hsl(144.82149670558633, 82.98994936787635%, 52.85302605574696%)"></path><path d="
      M 68.45011480430972 164.5697206721013
      Q 66.0961016211928 159.07471330780126 63.742088438075896 153.5797059435012
      Q 61.38807525495898 148.08469857920116 59.034062071842065 153.5797059435012
      Q 69.86785173376434 152.69807554605157 68.45011480430972 164.5697206721013
      Z
    " fill="hsl(137.22819314611255, 85.23083119497316%, 41.27371666004483%)"></path><path d="
      M 219.18561588202024 129.6004748618011
      Q 223.4352010209484 125.39601173947489 227.68478615987652 121.19154861714868
      Q 231.93437129880468 116.98708549482247 236.18395643773283 121.19154861714868
      Q 230.75057637605966 126.56771625431057 219.18561588202024 129.6004748618011
      Z
    " fill="hsl(114.22129969200608, 77.60124461461491%, 41.209896702321856%)"></path><path d="
      M 219.18561588202024 129.6004748618011
      Q 224.38583294388724 126.65187748177999 229.58605000575423 123.70328010175889
      Q 234.78626706762125 120.75468272173778 239.98648412948825 123.70328010175889
      Q 231.14125342358153 129.69357145040706 219.18561588202024 129.6004748618011
      Z
    " fill="hsl(123.14633354193954, 82.32680176832231%, 47.68420602106478%)"></path><path d="
      M 219.18561588202024 129.6004748618011
      Q 224.18178737125723 126.31798275211746 229.17795886049424 123.03549064243381
      Q 234.17413034973123 119.75299853275018 239.17030183896824 123.03549064243381
      Q 231.12173085438943 128.91120324162208 219.18561588202024 129.6004748618011
      Z
    " fill="hsl(148.90092861346983, 70.61637255843405%, 54.070213540027765%)"></path><path d="
      M 219.18561588202024 129.6004748618011
      Q 222.29575142718977 124.49522845338231 225.40588697235933 119.38998204496352
      Q 228.51602251752885 114.28473563654472 231.6261580626984 119.38998204496352
      Q 229.67777507309862 123.86806424243076 219.18561588202024 129.6004748618011
      Z
    " fill="hsl(126.2539097004823, 73.63765112025108%, 53.469097418059114%)"></path><path d="
      M 219.18561588202024 129.6004748618011
      Q 221.7172230204424 124.18499249208648 224.24883015886456 118.76951012237186
      Q 226.7804372972867 113.35402775265722 229.31204443570888 118.76951012237186
      Q 228.9859704402861 122.75219138838402 219.18561588202024 129.6004748618011
      Z
    " fill="hsl(144.23308079843673, 74.04798982047245%, 53.243148934720324%)"></path><path d="
      M 79.29829985320524 146.61065586881853
      Q 74.90463861510688 142.55698778610233 70.51097737700853 138.50331970338613
      Q 66.11731613891017 134.44965162066993 61.72365490081182 138.50331970338613
      Q 75.7419234402891 135.1958355544354 79.29829985320524 146.61065586881853
      Z
    " fill="hsl(111.72374736842102, 80.0710950345681%, 51.64332180197863%)"></path><path d="
      M 79.29829985320524 146.61065586881853
      Q 73.35428872771949 147.2472214507515 67.41027760223375 147.8837870326845
      Q 61.466266476748 148.52035261461748 55.52225535126225 147.8837870326845
      Q 68.36640500117628 141.76920867359036 79.29829985320524 146.61065586881853
      Z
    " fill="hsl(132.48621483246407, 87.77222748848907%, 54.271585589466035%)"></path><path d="
      M 79.29829985320524 146.61065586881853
      Q 73.76909947344343 144.338118265072 68.23989909368163 142.0655806613255
      Q 62.710698713919825 139.79304305757898 57.18149833415802 142.0655806613255
      Q 71.99398147397517 137.14530489725695 79.29829985320524 146.61065586881853
      Z
    " fill="hsl(110.24935839309249, 82.07129972888166%, 56.5810020189152%)"></path><path d="
      M 79.29829985320524 146.61065586881853
      Q 74.79536837266777 142.67872350907675 70.29243689213028 138.74679114933497
      Q 65.78950541159281 134.8148587895932 61.286573931055344 138.74679114933497
      Q 75.43092610565476 135.2974177692841 79.29829985320524 146.61065586881853
      Z
    " fill="hsl(132.04601531848695, 78.8723925377985%, 55.637481702784655%)"></path><path d="
      M 79.29829985320524 146.61065586881853
      Q 74.20774776977898 143.47652704473927 69.1171956863527 140.34239822066
      Q 64.02664360292644 137.20826939658073 58.93609151950017 140.34239822066
      Q 73.61533383021461 136.09163342462085 79.29829985320524 146.61065586881853
      Z
    " fill="hsl(143.12552775690784, 72.40412826964604%, 49.0540617064553%)"></path><path d="
      M 217.2253801034435 96.12729043538357
      Q 223.2029001437933 96.05153974418816 229.1804201841431 95.97578905299277
      Q 235.1579402244929 95.90003836179736 241.1354602648427 95.97578905299277
      Q 227.65449920778593 101.97360642987447 217.2253801034435 96.12729043538357
      Z
    " fill="hsl(149.47529318213554, 84.27050990621494%, 59.34430298943042%)"></path><path d="
      M 217.2253801034435 96.12729043538357
      Q 222.502902649231 93.31940158809905 227.7804251950185 90.51151274081454
      Q 233.05794774080596 87.70362389353002 238.33547028659345 90.51151274081454
      Q 229.1742061381222 96.54140683566827 217.2253801034435 96.12729043538357
      Z
    " fill="hsl(143.79454785851803, 81.85588177916729%, 43.20290423430491%)"></path><path d="
      M 217.2253801034435 96.12729043538357
      Q 222.49389861726468 93.30254324855008 227.7624171310858 90.47779606171657
      Q 233.03093564490698 87.65304887488308 238.2994541587281 90.47779606171657
      Q 229.1754690368325 96.50320330307186 217.2253801034435 96.12729043538357
      Z
    " fill="hsl(117.4792406981757, 77.89771847951752%, 44.8470341111586%)"></path><path d="
      M 92.68196146800668 97.2816778636164
      Q 87.04597442753636 95.28865651911187 81.40998738706605 93.29563517460733
      Q 75.77400034659573 91.3026138301028 70.13801330612542 93.29563517460733
      Q 84.91316690761687 88.19367659389499 92.68196146800668 97.2816778636164
      Z
    " fill="hsl(111.26508818318936, 86.69914318890753%, 55.09302881167062%)"></path><path d="
      M 92.68196146800668 97.2816778636164
      Q 87.66846174877608 94.02571340354089 82.65496202954549 90.7697489434654
      Q 77.64146231031489 87.5137844833899 72.6279625910843 90.7697489434654
      Q 87.25428969064248 86.62868227189647 92.68196146800668 97.2816778636164
      Z
    " fill="hsl(130.2391698299631, 88.39291727301875%, 50.08526306589897%)"></path><path d="
      M 92.68196146800668 97.2816778636164
      Q 87.08127258767102 95.19151804540044 81.48058370733537 93.10135822718448
      Q 75.87989482699972 91.01119840896853 70.27920594666406 93.10135822718448
      Q 85.07144358809524 88.06072598219177 92.68196146800668 97.2816778636164
      Z
    " fill="hsl(136.0737976543596, 76.4144263004773%, 55.04544306841463%)"></path><path d="
      M 92.68196146800668 97.2816778636164
      Q 86.81052062983248 96.15799352901868 80.93907979165829 95.03430919442096
      Q 75.06763895348409 93.91062485982324 69.1961981153099 95.03430919442096
      Q 83.6360119572519 89.46395866624972 92.68196146800668 97.2816778636164
      Z
    " fill="hsl(117.49148132973001, 84.72207544119043%, 46.680967267865384%)"></path><path d="
      M 191.82102008807686 67.74839352129108
      Q 196.86823731936977 64.54494503253088 201.91545455066267 61.34149654377067
      Q 206.96267178195555 58.138048055010465 212.00988901324845 61.34149654377067
      Q 203.7665052582735 67.24707521062156 191.82102008807686 67.74839352129108
      Z
    " fill="hsl(147.300712025915, 74.05461689731932%, 57.99468810712929%)"></path><path d="
      M 191.82102008807686 67.74839352129108
      Q 197.79686013158155 67.58770819387775 203.77270017508624 67.42702286646443
      Q 209.7485402185909 67.2663375390511 215.7243802620956 67.42702286646443
      Q 202.33216398874492 73.44591841368504 191.82102008807686 67.74839352129108
      Z
    " fill="hsl(111.90476008973646, 73.37138393737615%, 51.954717022117535%)"></path><path d="
      M 191.82102008807686 67.74839352129108
      Q 197.7944310981791 67.51420363169426 203.76784210828134 67.28001374209745
      Q 209.74125311838358 67.04582385250063 215.71466412848582 67.28001374209745
      Q 202.40146134166207 73.31617574399269 191.82102008807686 67.74839352129108
      Z
    " fill="hsl(138.74985168192129, 84.71982419807581%, 48.83169526807668%)"></path><path d="
      M 191.82102008807686 67.74839352129108
      Q 197.7105789059305 68.77288409276663 203.60013772378417 69.79737466424218
      Q 209.4896965416378 70.82186523571774 215.37925535949148 69.79737466424218
      Q 200.99754462328914 75.41242206081566 191.82102008807686 67.74839352129108
      Z
    " fill="hsl(137.33857692363125, 74.18718669565521%, 54.38653025116103%)"></path><path d="
      M 191.82102008807686 67.74839352129108
      Q 196.87088109612313 64.54911425879868 201.92074210416942 61.3498349963063
      Q 206.97060311221568 58.1505557338139 212.02046412026198 61.3498349963063
      Q 203.7669151876664 67.25694029909904 191.82102008807686 67.74839352129108
      Z
    " fill="hsl(113.05504740921312, 71.31416387940259%, 54.084636486065214%)"></path><path d="
      M 114.93690476175334 61.9524302823466
      Q 108.98976428073897 62.559063696428105 103.04262379972461 63.16569711050961
      Q 97.09548331871024 63.77233052459112 91.14834283769586 63.16569711050961
      Q 104.02952187480534 57.05600969609037 114.93690476175334 61.9524302823466
      Z
    " fill="hsl(128.72231919732582, 84.48379742729907%, 51.13648236009876%)"></path><path d="
      M 114.93690476175334 61.9524302823466
      Q 108.99760613310171 61.27330157606409 103.0583075044501 60.59417286978159
      Q 97.11900887579847 59.91504416349909 91.17971024714684 60.59417286978159
      Q 105.32886648188708 54.83684622953516 114.93690476175334 61.9524302823466
      Z
    " fill="hsl(114.81787624679555, 78.92420558044712%, 55.919376976522535%)"></path><path d="
      M 114.93690476175334 61.9524302823466
      Q 109.2188821146354 60.20866968896046 103.50085946751747 58.46490909557432
      Q 97.78283682039952 56.721148502188186 92.06481417328159 58.46490909557432
      Q 106.77675961150172 53.21412569124742 114.93690476175334 61.9524302823466
      Z
    " fill="hsl(126.88199152227253, 75.19352603472805%, 59.107560765801495%)"></path><path d="
      M 114.93690476175334 61.9524302823466
      Q 109.02049702653406 61.09650767449155 103.10408929131476 60.2405850666365
      Q 97.18768155609548 59.38466245878145 91.27127382087619 60.2405850666365
      Q 105.54530857391507 54.553521102975516 114.93690476175334 61.9524302823466
      Z
    " fill="hsl(119.24521788576929, 87.06223630558645%, 44.14945561738185%)"></path><path d="
      M 258.13576098806925 142.88294639432468
      Q 262.5068812893649 138.80498228075027 266.8780015906606 134.72701816717583
      Q 271.2491218919563 130.64905405360142 275.62024219325195 134.72701816717583
      Q 269.78472754948353 140.19082565946687 258.13576098806925 142.88294639432468
      Z
    " fill="hsl(111.64777086297144, 78.83647807603292%, 40.69762814314047%)"></path><path d="
      M 258.13576098806925 142.88294639432468
      Q 261.420196692326 137.88805239098448 264.70463239658267 132.89315838764432
      Q 267.9890681008394 127.89826438430413 271.2735038050961 132.89315838764432
      Q 268.8194645053753 137.51597190637509 258.13576098806925 142.88294639432468
      Z
    " fill="hsl(121.51419150654436, 83.87878478309351%, 51.68470007857785%)"></path><path d="
      M 258.13576098806925 142.88294639432468
      Q 261.210154138274 137.7560964103702 264.2845472884788 132.6292464264157
      Q 267.35894043868353 127.50239644246123 270.4333335888883 132.6292464264157
      Q 268.5876161106201 137.0773748895366 258.13576098806925 142.88294639432468
      Z
    " fill="hsl(120.54666266487189, 87.46655272648601%, 56.04449109825857%)"></path><path d="
      M 258.13576098806925 142.88294639432468
      Q 259.79617705284295 137.14016810399852 261.4565931176167 131.3973898136724
      Q 263.1170091823904 125.65461152334623 264.77742524716416 131.3973898136724
      Q 266.7544642642871 134.59657868364997 258.13576098806925 142.88294639432468
      Z
    " fill="hsl(127.58433257550762, 77.10131232712203%, 55.38865073199045%)"></path><path d="
      M 53.2285083256008 122.74870058402446
      Q 49.80737302700518 117.84642384064256 46.386237728409554 112.94414709726067
      Q 42.965102429813925 108.04187035387876 39.54396713121831 112.94414709726067
      Q 52.20520491224776 110.83657289312809 53.2285083256008 122.74870058402446
      Z
    " fill="hsl(124.30839656552911, 80.11780882670989%, 57.163484111726234%)"></path><path d="
      M 53.2285083256008 122.74870058402446
      Q 50.717502832836615 117.32363510835432 48.20649734007243 111.89856963268417
      Q 45.69549184730825 106.47350415701403 43.18448635454406 111.89856963268417
      Q 54.30438470971885 110.84120605301177 53.2285083256008 122.74870058402446
      Z
    " fill="hsl(117.13403041052095, 81.00612113325492%, 49.09074981771475%)"></path><path d="
      M 53.2285083256008 122.74870058402446
      Q 48.78120608935278 118.75395568360048 44.333903853104765 114.7592107831765
      Q 39.88660161685675 110.76446588275252 35.43929938060873 114.7592107831765
      Q 49.52029979622852 111.38229721696544 53.2285083256008 122.74870058402446
      Z
    " fill="hsl(138.85250039997166, 87.53261164706629%, 43.47276081093097%)"></path><path d="
      M 193.38427475784292 224.58627105180022
      Q 195.86500804682106 220.65524508817018 198.34574133579918 216.72421912454013
      Q 200.82647462477732 212.7931931609101 203.30720791375546 216.72421912454013
      Q 201.61205681801053 220.2582676458987 193.38427475784292 224.58627105180022
      Z
    " fill="hsl(145.28970057931213, 80.57164507694975%, 47.36674838469761%)"></path><path d="
      M 193.37830067424605 224.591283903143
      Q 195.71368789226295 220.57220822337518 198.0490751102799 216.5531325436074
      Q 200.3844623282968 212.5340568638396 202.7198495463137 216.5531325436074
      Q 201.44238567096608 219.96542784433765 193.37830067424605 224.591283903143
      Z
    " fill="hsl(110.04643626377977, 74.97360487223845%, 45.639787836334726%)"></path><path d="
      M 219.84150046097926 202.38602272232447
      Q 224.375510324792 201.36144606212454 228.90952018860477 200.33686940192462
      Q 233.44353005241751 199.31229274172472 237.97753991623028 200.33686940192462
      Q 228.7192125673213 205.14541375442172 219.84150046097926 202.38602272232447
      Z
    " fill="hsl(125.48871675315948, 80.82961348732053%, 41.73637866535437%)"></path><path d="
      M 117.32379067017348 233.57140480307098
      Q 113.07791343498081 231.67944040555963 108.83203619978813 229.78747600804832
      Q 104.58615896459547 227.89551161053697 100.34028172940279 229.78747600804832
      Q 111.86167997363104 226.04854910527723 117.32379067017348 233.57140480307098
      Z
    " fill="hsl(119.62173503400398, 82.41269015454239%, 58.90449123980177%)"></path><path d="
      M 107.5241514426695 225.348531141602
      Q 102.97456967136466 224.39547894786415 98.42498790005983 223.44242675412633
      Q 93.87540612875499 222.48937456038848 89.32582435745016 223.44242675412633
      Q 100.59709685531816 219.14821454847825 107.5241514426695 225.348531141602
      Z
    " fill="hsl(144.67016163083107, 88.83346836207225%, 41.36188326041941%)"></path><path d="
      M 85.71366028167947 207.04735605261993
      Q 82.13453736343364 204.08140225765527 78.55541444518781 201.1154484626906
      Q 74.97629152694198 198.14949466772597 71.39716860869615 201.1154484626906
      Q 82.48039133570816 198.3310504685936 85.71366028167947 207.04735605261993
      Z
    " fill="hsl(142.2815283280612, 84.89994062449482%, 59.067417422267496%)"></path><path d="
      M 205.82387733285705 214.14820511911395
      Q 210.16116394224582 212.47639542725463 214.49845055163456 210.8045857353953
      Q 218.8357371610233 209.13277604353598 223.17302377041207 210.8045857353953
      Q 215.00808779916585 215.5898324016163 205.82387733285705 214.14820511911395
      Z
    " fill="hsl(136.5301950289422, 89.77509621933523%, 46.01072333970495%)"></path><path d="
      M 196.15922575768894 222.25781069129442
      Q 198.11897597546297 218.04279208377767 200.07872619323703 213.82777347626094
      Q 202.03847641101106 209.6127548687442 203.99822662878512 213.82777347626094
      Q 203.7686313125345 216.91693452600126 196.15922575768894 222.25781069129442
      Z
    " fill="hsl(146.78952610817203, 75.15639003820144%, 50.91256889389487%)"></path><path d="
      M 207.9935769803413 212.32761094514444
      Q 212.25533387358934 210.47169312351807 216.5170907668374 208.6157753018917
      Q 220.77884766008546 206.7598574802653 225.04060455333354 208.6157753018917
      Q 217.2310742705802 213.37482387666307 207.9935769803413 212.32761094514444
      Z
    " fill="hsl(114.38895947904025, 84.19378623350622%, 54.74284906922193%)"></path><path d="
      M 54.743758437695746 226.3195634432502
      Q 50.09568392150055 226.27051173915518 45.447609405305364 226.2214600350602
      Q 40.79953488911018 226.1724083309652 36.15146037291498 226.2214600350602
      Q 46.74210892237454 221.58652888336462 54.743758437695746 226.3195634432502
      Z
    " fill="hsl(141.5318972867235, 70.3151366205602%, 48.898598515805254%)"></path><path d="
      M 79.73008479705162 235.41384250171672
      Q 76.52764684188976 232.04465952640703 73.32520888672792 228.67547655109738
      Q 70.12277093156607 225.3062935757877 66.92033297640421 228.67547655109738
      Q 77.55248252593398 226.37580845332243 79.73008479705162 235.41384250171672
      Z
    " fill="hsl(127.9457279902524, 77.57198783509534%, 56.90167853982622%)"></path><path d="
      M 104.4632693811144 244.41598548892728
      Q 99.81495241490028 244.40365019875404 95.16663544868615 244.39131490858082
      Q 90.51831848247201 244.37897961840758 85.87000151625789 244.39131490858082
      Q 96.42448351612033 239.746303173407 104.4632693811144 244.41598548892728
      Z
    " fill="hsl(142.59594384686352, 80.040670589395%, 56.45287396854117%)"></path><path d="
      M 263.1761382512292 208.21510001304296
      Q 267.2621912839559 205.9989832761532 271.34824431668255 203.78286653926347
      Q 275.43429734940923 201.56674980237372 279.5203503821359 203.78286653926347
      Q 272.46950644322243 208.46272626197285 263.1761382512292 208.21510001304296
      Z
    " fill="hsl(128.01734762526513, 82.70652682312853%, 47.60674402781883%)"></path><path d="
      M 281.6468085681745 199.60208499299515
      Q 284.5948744866642 196.0082138047057 287.5429404051539 192.4143426164162
      Q 290.49100632364366 188.82047142812672 293.43907224213336 192.4143426164162
      Q 290.34687971135037 196.32538341750956 281.6468085681745 199.60208499299515
      Z
    " fill="hsl(130.95553056524258, 71.02845811908745%, 40.716892500454264%)"></path><path d="
      M 274.89496478911576 202.75052145383643
      Q 279.36859993382507 201.48814616502582 283.8422350785344 200.22577087621522
      Q 288.3158702232436 198.96339558740462 292.7895053679529 200.22577087621522
      Q 283.9059034430886 205.03765846010631 274.89496478911576 202.75052145383643
      Z
    " fill="hsl(130.08267845663056, 71.98163806186595%, 44.1968337854803%)"></path><path d="
      M 56.30069225438089 235.88334615820617
      Q 52.85092399683604 232.7678844352807 49.401155739291184 229.65242271235522
      Q 45.95138748174634 226.53696098942976 42.501619224201484 229.65242271235522
      Q 53.44098008090032 227.03743990751832 56.30069225438089 235.88334615820617
      Z
    " fill="hsl(130.66702889811876, 87.45171227220027%, 58.15363097444413%)"></path><path d="
      M 28.592838339344652 228.45904907767272
      Q 24.004937450109292 229.20615563522068 19.41703656087393 229.95326219276865
      Q 14.829135671638568 230.70036875031658 10.241234782403208 229.95326219276865
      Q 19.899254341550616 225.1651747047783 28.592838339344652 228.45904907767272
      Z
    " fill="hsl(136.0620643833179, 75.27673242435759%, 54.57045405895228%)"></path><path d="
      M 64.69325148507471 238.13212562650094
      Q 60.93558762606899 235.39589371006915 57.17792376706326 232.65966179363735
      Q 53.420259908057545 229.92342987720556 49.66259604905182 232.65966179363735
      Q 60.92101867994326 229.6351690669438 64.69325148507471 238.13212562650094
      Z
    " fill="hsl(148.35702161525137, 82.81714089852754%, 56.81543713726262%)"></path><path d="
      M 250.12152603020417 224.5487447156969
      Q 254.73486154697704 225.1180760668973 259.3481970637499 225.68740741809765
      Q 263.9615325805228 226.25673876929804 268.5748680972957 225.68740741809765
      Q 257.5427261864164 230.1481910590907 250.12152603020417 224.5487447156969
      Z
    " fill="hsl(144.86651557625902, 72.12561658851462%, 55.27387626066783%)"></path><path d="
      M 310.3090820832863 202.64226583914643
      Q 314.58516298136976 200.81959336971497 318.86124387945324 198.99692090028347
      Q 323.1373247775367 197.174248430852 327.41340567562014 198.99692090028347
      Q 319.5381439254731 203.76138541461754 310.3090820832863 202.64226583914643
      Z
    " fill="hsl(125.65081549536912, 72.98273847273326%, 53.037185416597396%)"></path><path d="
      M 315.8540971858615 200.6240453932525
      Q 320.4868404368386 201.00443039335659 325.11958368781563 201.38481539346066
      Q 329.75232693879275 201.76520039356475 334.3850701897698 201.38481539346066
      Q 323.49785887487155 205.91563479084692 315.8540971858615 200.6240453932525
      Z
    " fill="hsl(130.16895571097686, 84.71594054330153%, 53.184319935230505%)"></path><path d="
      M 0.5361403201125938 234.63548889761176
      Q -3.5703888744310666 232.4575493318436 -7.676918068974727 230.27960976607545
      Q -11.783447263518386 228.1016702003073 -15.889976458062048 230.27960976607545
      Q -4.398637321833767 226.75665771934317 0.5361403201125938 234.63548889761176
      Z
    " fill="hsl(135.916016870039, 86.83592735010761%, 57.86593815355792%)"></path><path d="
      M 13.789191192532371 236.97235934312124
      Q 9.228630590872283 236.0733099694139 4.668069989212196 235.17426059570656
      Q 0.10750938755210804 234.27521122199923 -4.45305121410798 235.17426059570656
      Q 6.789117893167552 230.85459954768706 13.789191192532371 236.97235934312124
      Z
    " fill="hsl(114.21255226949695, 77.50853298247264%, 49.29662954124566%)"></path><path d="
      M -21.857110000980924 230.68695468024447
      Q -26.140548730483385 228.8816415693476 -30.423987459985845 227.07632845845075
      Q -34.70742618948831 225.27101534755388 -38.990864918990766 227.07632845845075
      Q -27.470930400690605 223.2766219190984 -21.857110000980924 230.68695468024447
      Z
    " fill="hsl(141.0244870221066, 83.31191266178746%, 49.20646929404155%)"></path><path d="
      M 183.65496808470485 168.5237351348075
      Q 183.12831875082045 163.90533246105798 182.6016694169361 159.28692978730842
      Q 182.0750200830517 154.6685271135589 181.5483707491673 159.28692978730842
      Q 187.36118735439433 159.99777772017697 183.65496808470485 168.5237351348075
      Z
    " fill="hsl(143.8103118658607, 76.62358405310431%, 54.72757544590584%)"></path><path d="
      M 191.56307325813492 146.79639474013615
      Q 192.3882389244074 142.2218888213529 193.2134045906799 137.6473829025697
      Q 194.03857025695237 133.07287698378644 194.86373592322485 137.6473829025697
      Q 197.56680803556353 139.6982837355515 191.56307325813492 146.79639474013615
      Z
    " fill="hsl(119.15828554174527, 86.76413232704535%, 40.76658939738448%)"></path><path d="
      M 197.30975594950922 131.00751380881448
      Q 197.70403387076706 126.37593225403361 198.09831179202493 121.74435069925275
      Q 198.49258971328277 117.11276914447187 198.8868676345406 121.74435069925275
      Q 202.62424689621133 123.379657157793 197.30975594950922 131.00751380881448
      Z
    " fill="hsl(120.41313434535232, 86.49811907571507%, 53.7824967679576%)"></path><path d="
      M 124.48876343449885 190.89845359392066
      Q 122.55886998465249 186.66968142578276 120.62897653480613 182.44090925764482
      Q 118.69908308495977 178.2121370895069 116.76918963511339 182.44090925764482
      Q 125.3748620943085 181.64411189522622 124.48876343449885 190.89845359392066
      Z
    " fill="hsl(133.77921000327572, 72.12823137383565%, 48.131019873614214%)"></path><path d="
      M 120.67768645283768 180.42760564300335
      Q 117.47264677973598 177.06089753691188 114.26760710663429 173.69418943082042
      Q 111.06256743353259 170.32748132472895 107.85752776043091 173.69418943082042
      Q 118.49310300484306 171.39125647589725 120.67768645283768 180.42760564300335
      Z
    " fill="hsl(140.4685282965047, 77.14527251966426%, 45.96204003181462%)"></path><path d="
      M 132.57880473441128 213.12565938788538
      Q 129.83578534331429 209.37294738216957 127.09276595221728 205.62023537645376
      Q 124.34974656112027 201.86752337073793 121.60672717002326 205.62023537645376
      Q 131.58046778860043 203.88275213671488 132.57880473441128 213.12565938788538
      Z
    " fill="hsl(111.75535293224337, 80.62844686411863%, 45.881852586511116%)"></path><text x="150" y="385" text-anchor="middle" fill="#333" font-weight="bold" font-size="14">99<!-- -->% Complete</text></svg>
