<svg xmlns="http://www.w3.org/2000/svg" version="1.2" viewBox="731.1 253.3 187.9 361.1">
	<title>iStock-688654534</title>
	<style>
		.s0 { fill: #bed22f } 
		.s1 { fill: #b6c92d } 
		.s2 { fill: #98b82f } 
		.s3 { fill: #95b52e } 
		.s4 { fill: #8b7b4b } 
		.s5 { fill: #231f20 } 
		.s6 { fill: #f8aa8e } 
		.s7 { fill: #e47f63 } 
		.s8 { fill: #f4876a } 
	</style>
	<g id="Layer 1">
		<g id="&lt;Group&gt;">
			<g id="3">
				<g id="&lt;Group&gt;">
					<g id="&lt;Group&gt;">
						<path id="&lt;Path&gt;" class="s0" d="m795.9 302.9c17.7 17.8 23.3 40.9 12.5 51.5-10.7 10.7-33.7 4.8-51.4-13-17.7-17.8-23.3-40.9-12.6-51.6 10.8-10.6 33.8-4.8 51.5 13.1z"/>
						<path id="&lt;Path&gt;" class="s1" d="m795.9 302.9c-17.7-17.9-40.7-23.7-51.5-13.1q-0.9 0.9-1.6 1.9 0 0 0 0c10.8-10.7 33.8-4.8 51.5 13 16.7 16.9 22.6 38.4 14.2 49.7 10.7-10.7 5-33.7-12.6-51.5z"/>
					</g>
					<g id="&lt;Group&gt;">
						<path id="&lt;Path&gt;" class="s0" d="m896.1 364.1c-14.9 14-34.5 17.3-43.8 7.4-9.3-9.8-4.7-29.2 10.2-43.2 14.9-14.1 34.6-17.4 43.9-7.5 9.2 9.9 4.7 29.3-10.3 43.3z"/>
						<path id="&lt;Path&gt;" class="s1" d="m909.1 324.8c4 10.5-1.3 25.9-13.7 37.6-14.9 14-34.5 17.3-43.8 7.4q-1.7-1.8-2.8-4c0.8 2.1 1.9 4.1 3.5 5.7 9.3 9.9 28.9 6.6 43.8-7.4 13.1-12.3 18.3-28.8 13-39.3z"/>
					</g>
					<g id="&lt;Group&gt;">
						<path id="&lt;Path&gt;" class="s0" d="m886.6 311.2c-10.8 10.2-25.1 12.7-31.9 5.5-6.8-7.2-3.4-21.4 7.4-31.6 10.9-10.2 25.2-12.6 32-5.4 6.7 7.2 3.4 21.3-7.5 31.5z"/>
						<path id="&lt;Path&gt;" class="s1" d="m896.1 282.6c2.9 7.7-0.9 18.9-10 27.4-10.9 10.2-25.2 12.6-31.9 5.4q-1.3-1.3-2-2.9c0.5 1.5 1.4 2.9 2.5 4.2 6.8 7.2 21.1 4.7 31.9-5.5 9.6-8.9 13.3-20.9 9.5-28.6z"/>
					</g>
					<g id="&lt;Group&gt;">
						<path id="&lt;Path&gt;" class="s0" d="m852.1 287.9c-0.6 18.8-11.1 33.7-23.5 33.3-12.5-0.4-22.1-15.9-21.5-34.6 0.6-18.7 11.1-33.6 23.5-33.3 12.4 0.4 22 15.9 21.5 34.6z"/>
						<path id="&lt;Path&gt;" class="s1" d="m835 254.1c9.4 4.3 16 17.6 15.5 33.2-0.6 18.7-11.1 33.6-23.5 33.3q-2.3-0.1-4.4-0.8c1.9 0.8 3.9 1.3 6 1.4 12.4 0.4 22.9-14.5 23.5-33.3 0.4-16.4-6.9-30.4-17.1-33.8z"/>
					</g>
					<g id="&lt;Group&gt;">
						<g id="&lt;Group&gt;">
							<path id="&lt;Path&gt;" class="s2" d="m828.1 470.8c-2 0-3.7-1.2-3.7-2.7v-170.4c0-1.5 1.7-2.7 3.7-2.7 2.1 0 3.8 1.2 3.8 2.7v170.4c0 1.5-1.7 2.7-3.8 2.7z"/>
						</g>
						<path id="&lt;Path&gt;" class="s3" d="m828.1 295q-0.4 0-0.8 0.1c1.6 0.3 2.8 1.3 2.8 2.6v170.4c0 1.3-1.2 2.4-2.8 2.7q0.4 0 0.8 0c2.1 0 3.8-1.2 3.8-2.7v-170.4c0-1.5-1.7-2.7-3.8-2.7z"/>
					</g>
					<g id="&lt;Group&gt;">
						<g id="&lt;Group&gt;">
							<path id="&lt;Path&gt;" class="s2" d="m827.9 389.8c-0.1 0.7 0.1 1.4 0.6 1.9 0.9 1.2 2.5 1.3 3.6 0.3l40.2-35.5c1.1-1 1.2-2.7 0.3-3.8-0.9-1.1-2.6-1.3-3.7-0.3l-40.1 35.5c-0.5 0.5-0.9 1.2-0.9 1.9z"/>
						</g>
						<path id="&lt;Path&gt;" class="s3" d="m828.5 391.7c0.9 1.2 2.5 1.3 3.6 0.3l40.2-35.5q0 0 0 0-0.2 0.2-0.4 0.4l-39.5 36.3c-1 1-2.7 0.9-3.6-0.2-0.5-0.5-0.7-1.2-0.7-1.8q0.2 0.3 0.4 0.5z"/>
					</g>
					<g id="&lt;Group&gt;">
						<path id="&lt;Path&gt;" class="s0" d="m862.7 398.3c8.8 2.1 16.9-0.4 18.1-5.7 1.3-5.2-4.7-11.2-13.4-13.3-8.7-2.1-16.8 0.4-18.1 5.6-1.3 5.3 4.7 11.3 13.4 13.4z"/>
						<path id="&lt;Path&gt;" class="s1" d="m862.7 398.3c-8.7-2.1-14.7-8.1-13.4-13.4q0.1-0.4 0.3-0.8 0 0 0 0c-1.3 5.2 4.7 11.2 13.4 13.4 8.2 2 15.9-0.2 17.8-4.8-1.3 5.2-9.4 7.7-18.1 5.6z"/>
					</g>
					<g id="&lt;Group&gt;">
						<g id="&lt;Group&gt;">
							<path id="&lt;Path&gt;" class="s2" d="m837.9 380.9c-0.3 0.1-0.4 0.4-0.5 0.8-0.1 0.6 0.4 1.3 1 1.5l25.1 5.7c0.7 0.1 1.3-0.3 1.4-1 0.1-0.7-0.4-1.4-1-1.5l-25.1-5.7c-0.3-0.1-0.6 0-0.9 0.2z"/>
						</g>
						<path id="&lt;Path&gt;" class="s3" d="m837.4 381.7c-0.1 0.6 0.4 1.3 1 1.5l25.1 5.7q0 0 0 0-0.1 0-0.3-0.1l-25.1-5.2c-0.7-0.1-1.1-0.8-1.1-1.5 0.1-0.3 0.3-0.6 0.5-0.7q-0.1 0.1-0.1 0.3z"/>
					</g>
					<g id="&lt;Group&gt;">
						<path id="&lt;Path&gt;" class="s0" d="m795.2 384.4c-9 1.4-17.2-2.8-18.4-9.3-1.2-6.6 5.1-13 14.1-14.5 9-1.4 17.2 2.8 18.4 9.3 1.1 6.6-5.2 13-14.1 14.5z"/>
						<path id="&lt;Path&gt;" class="s1" d="m795.2 384.4c8.9-1.5 15.2-7.9 14.1-14.5q-0.1-0.5-0.3-1.1 0 0 0 0.1c1.2 6.5-5.1 13-14.1 14.4-8.5 1.4-16.3-2.3-18.1-8.2 1.2 6.6 9.4 10.7 18.4 9.3z"/>
					</g>
					<g id="&lt;Group&gt;">
						<g id="&lt;Group&gt;">
							<path id="&lt;Path&gt;" class="s2" d="m821.6 367.1c0.2 0.3 0.4 0.6 0.5 1 0.1 0.9-0.3 1.6-1 1.7l-24.6 3.9c-0.6 0.1-1.3-0.5-1.4-1.3-0.1-0.9 0.3-1.6 1-1.7l24.6-3.9c0.3 0 0.6 0.1 0.9 0.3z"/>
						</g>
						<path id="&lt;Path&gt;" class="s3" d="m822.1 368.1c0.1 0.9-0.3 1.6-1 1.7l-24.6 3.9q0 0 0 0 0.2 0 0.3 0l24.7-3.3c0.6-0.1 1.1-0.8 1-1.7-0.1-0.3-0.3-0.7-0.5-0.9q0.1 0.2 0.1 0.3z"/>
					</g>
					<g id="&lt;Group&gt;">
						<g id="&lt;Group&gt;">
							<path id="&lt;Path&gt;" class="s2" d="m828.1 378.7c0.6 0 1.3-0.3 1.8-0.8 1-1.1 1-2.8 0-3.8l-36.9-38.7c-1-1.1-2.6-1.1-3.6 0-1.1 1.1-1.1 2.8 0 3.8l36.8 38.7c0.5 0.5 1.2 0.8 1.9 0.8z"/>
						</g>
						<path id="&lt;Path&gt;" class="s3" d="m829.9 377.9c1-1.1 1-2.8 0-3.8l-36.9-38.7q0 0 0 0 0.2 0.1 0.4 0.3l37.6 38c1 1 1 2.7 0.1 3.8-0.5 0.5-1.1 0.8-1.7 0.8q0.2-0.2 0.5-0.4z"/>
					</g>
					<g id="&lt;Group&gt;">
						<g id="&lt;Group&gt;">
							<path id="&lt;Path&gt;" class="s2" d="m828.7 342.7c-0.7-0.1-1.3-0.3-1.8-0.8-1-1-0.9-2.6 0.1-3.6l37.4-35.2c1-1 2.6-0.9 3.5 0.1 1 1 0.9 2.6-0.1 3.6l-37.3 35.2c-0.5 0.5-1.2 0.7-1.8 0.7z"/>
						</g>
						<path id="&lt;Path&gt;" class="s3" d="m867.9 303.2q-0.3-0.3-0.6-0.5 0 0 0.1 0.1c1 1 0.9 2.6-0.1 3.6l-37.9 34.7c-0.5 0.4-1.2 0.6-1.8 0.6q-0.6 0-1-0.2 0.1 0.2 0.3 0.4c0.5 0.5 1.1 0.7 1.8 0.8 0.6 0 1.3-0.2 1.8-0.7l37.3-35.2c1-1 1.1-2.6 0.1-3.6z"/>
					</g>
				</g>
				<g id="&lt;Group&gt;">
					<path id="&lt;Path&gt;" class="s4" d="m890 481.5c0 28.8-29.1 52.2-64.9 52.2-35.9 0-64.9-23.4-64.9-52.2 0-28.8 29-52.2 64.9-52.2 35.8 0 64.9 23.4 64.9 52.2z"/>
					<g id="&lt;Group&gt;">
						<g id="&lt;Group&gt;">
							<path id="&lt;Path&gt;" class="s5" d="m893.5 593.6h-132.9c-1.6 0-2.9 1.3-2.9 2.9 0 1.6 1.3 2.9 2.9 2.9h132.9c1.6 0 2.9-1.3 2.9-2.9 0-1.6-1.3-2.9-2.9-2.9z"/>
							<path id="&lt;Path&gt;" class="s5" d="m870.8 608.6h-77.4c-1.6 0-2.9 1.3-2.9 2.9 0 1.6 1.3 2.9 2.9 2.9h77.4c1.6 0 2.9-1.3 2.9-2.9 0-1.6-1.3-2.9-2.9-2.9z"/>
							<path id="&lt;Path&gt;" class="s5" d="m744.8 593.6h-10.8c-1.6 0-2.9 1.3-2.9 2.9 0 1.6 1.3 2.9 2.9 2.9h10.8c1.6 0 2.9-1.3 2.9-2.9 0-1.6-1.3-2.9-2.9-2.9z"/>
							<path id="&lt;Path&gt;" class="s5" d="m916.1 593.6h-10.8c-1.6 0-2.9 1.3-2.9 2.9 0 1.6 1.3 2.9 2.9 2.9h10.8c1.6 0 2.9-1.3 2.9-2.9 0-1.6-1.3-2.9-2.9-2.9z"/>
						</g>
						<g id="&lt;Group&gt;">
							<path id="&lt;Path&gt;" class="s6" d="m897.5 476l-1 9.7-9.2 87.6c-1.2 11.6-10.9 20.3-22.5 20.3h-79.4c-11.6 0-21.3-8.7-22.5-20.3l-9.2-87.6-1-9.7z"/>
							<path id="&lt;Path&gt;" class="s7" d="m897.5 476l-1 9.7h-142.8l-1-9.7z"/>
							<path id="&lt;Path&gt;" class="s8" d="m909.6 482.7h-169.1c-1.5 0-2.7-1.3-2.7-2.8v-28.9c0-1.5 1.2-2.7 2.7-2.7h169.1c1.6 0 2.8 1.2 2.8 2.7v28.9c0 1.5-1.2 2.8-2.8 2.8z"/>
						</g>
					</g>
				</g>
			</g>
		</g>
	</g>
</svg>