<svg xmlns="http://www.w3.org/2000/svg" version="1.2" viewBox="272.9 369.49 187.9 244.91">
	<title>iStock-688654534</title>
	<style>
		.s0 { fill: #bed22f } 
		.s1 { fill: #b6c92d } 
		.s2 { fill: #98b82f } 
		.s3 { fill: #95b52e } 
		.s4 { fill: #8b7b4b } 
		.s5 { fill: #231f20 } 
		.s6 { fill: #f8aa8e } 
		.s7 { fill: #e47f63 } 
		.s8 { fill: #f4876a } 
	</style>
	<g id="Layer 1">
		<g id="&lt;Group&gt;">
			<g id="4">
				<g id="&lt;Group&gt;">
					<g id="&lt;Group&gt;">
						<path id="&lt;Path&gt;" class="s0" d="m376.2 389.1c1.7 11.9-3.3 22.4-11.2 23.5-7.9 1.1-15.6-7.6-17.3-19.5-1.7-11.9 3.3-22.4 11.2-23.5 7.9-1.2 15.6 7.6 17.3 19.5z"/>
						<path id="&lt;Path&gt;" class="s1" d="m361.8 369.6c6.4 1.7 12 9.3 13.4 19.2 1.7 11.9-3.4 22.5-11.3 23.6q-1.4 0.2-2.8 0c1.3 0.3 2.6 0.4 3.9 0.2 7.9-1.1 12.9-11.6 11.2-23.5-1.4-10.5-7.6-18.5-14.4-19.5z"/>
					</g>
					<g id="&lt;Group&gt;">
						<g id="&lt;Group&gt;">
							<path id="&lt;Path&gt;" class="s2" d="m377.9 513.3q-0.2 0-0.4 0c-0.8-0.1-1.5-0.7-1.6-1.6l-11.1-84.4-0.2-1-0.3-2.7 2.5-2.4 0.8-0.7 0.3 2.8 0.1 0.9 11.5 87.1c0.1 1-0.6 1.9-1.6 2z"/>
						</g>
						<path id="&lt;Path&gt;" class="s3" d="m377.9 513.3q-0.2 0-0.4 0c0.8-0.3 1.3-1.1 1.1-1.9l-11.3-86.5-0.2-0.9-0.3-2.8 0.8-0.7 0.3 2.8 0.1 0.9 11.5 87.1c0.1 1-0.6 1.9-1.6 2z"/>
					</g>
					<g id="&lt;Group&gt;">
						<path id="&lt;Path&gt;" class="s0" d="m395.1 412.2c-6.5 6.1-14.9 7.5-18.9 3.2-4-4.2-2.1-12.6 4.4-18.6 6.4-6.1 14.9-7.5 18.9-3.2 4 4.2 2 12.6-4.4 18.6z"/>
						<path id="&lt;Path&gt;" class="s1" d="m400.7 395.3c1.7 4.5-0.6 11.2-5.9 16.2-6.5 6-14.9 7.5-18.9 3.2q-0.8-0.8-1.2-1.7 0.5 1.4 1.5 2.4c4 4.3 12.4 2.9 18.9-3.2 5.6-5.3 7.9-12.4 5.6-16.9z"/>
					</g>
					<g id="&lt;Group&gt;">
						<g id="&lt;Group&gt;">
							<path id="&lt;Path&gt;" class="s2" d="m368 424.2l-0.7 0.7-2.5 2.4-0.2-1-0.3-2.7 2.5-2.4 0.8-0.7 0.3 2.8z"/>
						</g>
						<path id="&lt;Path&gt;" class="s2" d="m364.4 396.6l3.2 23.9-0.8 0.7-2.5 2.4-3.5-26.5c-0.1-0.9 0.4-1.6 1.2-1.9q0-0.1 0.2-0.1 0 0 0.2-0.1c1-0.1 1.9 0.6 2 1.6z"/>
						<path id="&lt;Path&gt;" class="s2" d="m385.7 407.5l-17.7 16.7-0.1-0.9-0.3-2.8 16.1-15.2c0.5-0.4 1.2-0.5 1.7-0.2q0 0 0 0 0.1 0 0.2 0.1 0.1 0.1 0.2 0.2c0.6 0.6 0.5 1.5-0.1 2.1z"/>
						<path id="&lt;Path&gt;" class="s3" d="m368 424.2l-0.7 0.7-2.5 2.4-0.2-1 2.5-2.3 0.8-0.7z"/>
					</g>
				</g>
				<g id="&lt;Group&gt;">
					<path id="&lt;Path&gt;" class="s4" d="m431.7 481.5c0 28.8-29 52.2-64.9 52.2-35.8 0-64.9-23.4-64.9-52.2 0-28.8 29.1-52.2 64.9-52.2 35.9 0 64.9 23.4 64.9 52.2z"/>
					<g id="&lt;Group&gt;">
						<g id="&lt;Group&gt;">
							<path id="&lt;Path&gt;" class="s5" d="m435.3 593.6h-132.9c-1.6 0-2.9 1.3-2.9 2.9 0 1.6 1.3 2.9 2.9 2.9h132.9c1.6 0 2.9-1.3 2.9-2.9 0-1.6-1.3-2.9-2.9-2.9z"/>
							<path id="&lt;Path&gt;" class="s5" d="m412.5 608.6h-77.4c-1.6 0-2.9 1.3-2.9 2.9 0 1.6 1.3 2.9 2.9 2.9h77.4c1.6 0 2.9-1.3 2.9-2.9 0-1.6-1.3-2.9-2.9-2.9z"/>
							<path id="&lt;Path&gt;" class="s5" d="m286.6 593.6h-10.8c-1.6 0-2.9 1.3-2.9 2.9 0 1.6 1.3 2.9 2.9 2.9h10.8c1.6 0 2.9-1.3 2.9-2.9 0-1.6-1.3-2.9-2.9-2.9z"/>
							<path id="&lt;Path&gt;" class="s5" d="m457.9 593.6h-10.8c-1.6 0-2.9 1.3-2.9 2.9 0 1.6 1.3 2.9 2.9 2.9h10.8c1.6 0 2.9-1.3 2.9-2.9 0-1.6-1.3-2.9-2.9-2.9z"/>
						</g>
						<g id="&lt;Group&gt;">
							<path id="&lt;Path&gt;" class="s6" d="m439.3 476l-1.1 9.7-9.2 87.6c-1.2 11.6-10.9 20.3-22.5 20.3h-79.4c-11.5 0-21.3-8.7-22.5-20.3l-9.2-87.6-1-9.7z"/>
							<path id="&lt;Path&gt;" class="s7" d="m439.3 476l-1.1 9.7h-142.8l-1-9.7z"/>
							<path id="&lt;Path&gt;" class="s8" d="m451.4 482.7h-169.1c-1.6 0-2.8-1.3-2.8-2.8v-28.9c0-1.5 1.2-2.7 2.8-2.7h169.1c1.5 0 2.7 1.2 2.7 2.7v28.9c0 1.5-1.2 2.8-2.7 2.8z"/>
						</g>
					</g>
				</g>
			</g>
		</g>
	</g>
</svg>