<svg xmlns="http://www.w3.org/2000/svg" version="1.2" viewBox="950.91 185.59 202.43 428.81">
	<title>iStock-688654534</title>
	<style>
		.s0 { fill: #bed22f } 
		.s1 { fill: #b6c92d } 
		.s2 { fill: #98b82f } 
		.s3 { fill: #95b52e } 
		.s4 { fill: #8b7b4b } 
		.s5 { fill: #231f20 } 
		.s6 { fill: #f8aa8e } 
		.s7 { fill: #e47f63 } 
		.s8 { fill: #f4876a } 
	</style>
	<g id="Layer 1">
		<g id="&lt;Group&gt;">
			<g id="2">
				<g id="&lt;Group&gt;">
					<path id="&lt;Path&gt;" class="s0" d="m1019.6 417.8c-6.8 1.1-13-2-14-6.9-0.9-4.9 3.8-9.9 10.5-11 6.8-1.2 13 1.9 14 6.8 0.9 5-3.8 9.9-10.5 11.1z"/>
					<path id="&lt;Path&gt;" class="s1" d="m1019.6 417.8c6.7-1.2 11.4-6.1 10.5-11.1q-0.1-0.4-0.2-0.8 0 0 0 0c0.9 5-3.8 9.9-10.6 11.1-6.3 1.1-12.3-1.6-13.7-6.1 1 5 7.2 8 14 6.9z"/>
				</g>
				<g id="&lt;Group&gt;">
					<g id="&lt;Group&gt;">
						<path id="&lt;Path&gt;" class="s2" d="m1047.8 405.2l-0.9 0.1-5.9 0.9-21.4 3.4c-0.8 0.1-1.6-0.6-1.7-1.5-0.2-1 0.3-1.9 1.1-2l19-3 5.9-0.9 0.8-0.1z"/>
					</g>
					<path id="&lt;Path&gt;" class="s3" d="m1047.8 405.2l-0.9 0.1-5.9 0.9-21.4 3.4q0.1 0 0.3 0l21.6-2.9 5.9-0.8h0.1l0.9-0.1z"/>
				</g>
				<g id="&lt;Group&gt;">
					<g id="&lt;Group&gt;">
						<path id="&lt;Path&gt;" class="s2" d="m1054 418.8c0.6 0 1.2-0.2 1.7-0.7 0.9-1 0.9-2.6 0-3.5l-34.2-35.8c-0.9-1-2.4-1-3.3 0-1 0.9-1 2.5 0 3.5l34.1 35.8c0.5 0.5 1.1 0.7 1.7 0.7z"/>
					</g>
					<path id="&lt;Path&gt;" class="s3" d="m1056.8 417.7c-0.5 0.5-1 0.7-1.6 0.8q0.2-0.2 0.5-0.4c0.9-1 0.9-2.6 0-3.5l-8.3-8.7-0.5-0.6-3-3.1-22.4-23.4q0.3 0.1 0.4 0.3l22.8 23 3.1 3.1 0.6 0.6 8.3 8.4c0.9 0.9 1 2.5 0.1 3.5z"/>
				</g>
				<g id="&lt;Group&gt;">
					<g id="&lt;Group&gt;">
						<g id="&lt;Group&gt;">
							<path id="&lt;Path&gt;" class="s0" d="m1101.8 390.4c-10.1 7.9-22.5 8.9-27.8 2.2-5.2-6.7-1.2-18.5 8.9-26.4 10.1-7.9 22.5-8.8 27.8-2.1 5.2 6.7 1.2 18.5-8.9 26.4z"/>
							<path id="&lt;Path&gt;" class="s1" d="m1112.2 366.7c1.8 6.8-2.3 16.1-10.7 22.6-10.2 7.9-22.6 8.9-27.8 2.2q-0.9-1.2-1.5-2.7c0.4 1.4 1 2.7 1.8 3.8 5.3 6.7 17.7 5.7 27.8-2.2 8.9-6.9 13-16.8 10.4-23.7z"/>
						</g>
						<g id="&lt;Group&gt;">
							<g id="&lt;Group&gt;">
								<path id="&lt;Path&gt;" class="s2" d="m1053.3 410.8l6.8-5.3 2.1-1.6 23.9-18.7c0.9-0.8 1.1-2.2 0.3-3.1q-0.1-0.2-0.3-0.3-0.1-0.1-0.2-0.2c-0.8-0.5-1.8-0.5-2.5 0.1l-21.2 16.7-2.1 1.6-6.8 5.3v4z"/>
							</g>
							<path id="&lt;Path&gt;" class="s3" d="m1053.3 410.8l6.8-5.3 2.1-1.6 23.9-18.7c0.9-0.8 1.1-2.2 0.3-3.1q-0.1-0.2-0.3-0.3-0.1-0.1-0.2-0.2 0.1 0.1 0.1 0.1c0.7 1 0.6 2.4-0.4 3.1l-23.4 17.8-2.1 1.6-6.8 5.1z"/>
						</g>
					</g>
					<g id="&lt;Group&gt;">
						<path id="&lt;Path&gt;" class="s0" d="m1017.8 243.8c20.8 21 27.4 48.1 14.8 60.6-12.6 12.5-39.7 5.7-60.5-15.3-20.8-21-27.4-48.1-14.8-60.6 12.7-12.5 39.7-5.6 60.5 15.3z"/>
						<path id="&lt;Path&gt;" class="s1" d="m1017.8 243.8c-20.8-20.9-47.8-27.8-60.5-15.3q-1 1.1-1.9 2.2 0 0 0.1 0c12.6-12.5 39.7-5.7 60.4 15.3 19.7 19.8 26.6 45.1 16.7 58.4 12.6-12.5 6-39.6-14.8-60.6z"/>
					</g>
					<g id="&lt;Group&gt;">
						<path id="&lt;Path&gt;" class="s0" d="m1135.7 315.8c-17.6 16.4-40.7 20.4-51.6 8.8-10.9-11.7-5.5-34.5 12-50.9 17.6-16.5 40.7-20.4 51.6-8.8 10.9 11.6 5.5 34.4-12 50.9z"/>
						<path id="&lt;Path&gt;" class="s1" d="m1150.9 269.6c4.7 12.4-1.5 30.4-16.1 44.2-17.5 16.4-40.6 20.4-51.5 8.7q-2-2.1-3.3-4.7c0.9 2.5 2.3 4.8 4.1 6.8 10.9 11.6 34 7.6 51.6-8.8 15.4-14.5 21.4-33.8 15.2-46.2z"/>
					</g>
					<g id="&lt;Group&gt;">
						<path id="&lt;Path&gt;" class="s0" d="m1124.5 253.7c-12.8 11.9-29.6 14.8-37.6 6.3-7.9-8.4-4-25 8.8-37 12.8-12 29.6-14.9 37.5-6.4 8 8.5 4.1 25.1-8.7 37.1z"/>
						<path id="&lt;Path&gt;" class="s1" d="m1135.6 220c3.4 9.1-1.1 22.2-11.7 32.2-12.8 12-29.6 14.8-37.6 6.4q-1.4-1.6-2.3-3.5c0.6 1.8 1.6 3.5 2.9 4.9 8 8.5 24.8 5.6 37.6-6.3 11.2-10.6 15.6-24.7 11.1-33.7z"/>
					</g>
					<g id="&lt;Group&gt;">
						<path id="&lt;Path&gt;" class="s0" d="m1083.8 226.3c-0.6 22-13 39.5-27.6 39.1-14.6-0.5-25.9-18.7-25.2-40.7 0.7-22 13-39.5 27.6-39.1 14.6 0.4 25.9 18.6 25.2 40.7z"/>
						<path id="&lt;Path&gt;" class="s1" d="m1063.8 186.5c11 5 18.7 20.7 18.2 39-0.7 22-13 39.6-27.6 39.1q-2.7-0.1-5.2-0.9c2.2 1 4.6 1.6 7 1.7 14.6 0.4 27-17.1 27.6-39.1 0.6-19.4-8-35.8-20-39.8z"/>
					</g>
					<g id="&lt;Group&gt;">
						<g id="&lt;Group&gt;">
							<path id="&lt;Path&gt;" class="s2" d="m1060.2 237.8v200.3c0 1.8-2 3.2-4.5 3.2q-0.5 0-1-0.1c-1.9-0.4-3.4-1.6-3.4-3.1v-200.3c0-1.5 1.5-2.8 3.4-3.1q0.5-0.1 1-0.1c2.5 0 4.5 1.4 4.5 3.2z"/>
						</g>
						<path id="&lt;Path&gt;" class="s3" d="m1055.7 234.6q-0.5 0-1 0.1c1.9 0.3 3.4 1.6 3.4 3.1v200.3c0 1.5-1.5 2.7-3.4 3.1q0.5 0.1 1 0.1c2.5 0 4.5-1.4 4.5-3.2v-200.3c0-1.8-2-3.2-4.5-3.2z"/>
					</g>
					<g id="&lt;Group&gt;">
						<g id="&lt;Group&gt;">
							<path id="&lt;Path&gt;" class="s2" d="m1055.4 346c0 0.8 0.2 1.6 0.7 2.3 1.1 1.3 3 1.5 4.3 0.3l47.2-41.7c1.3-1.2 1.5-3.2 0.4-4.5-1.1-1.3-3-1.5-4.3-0.4l-47.2 41.8c-0.6 0.6-1 1.4-1.1 2.2z"/>
						</g>
						<path id="&lt;Path&gt;" class="s3" d="m1056.1 348.3c1.1 1.3 3.1 1.5 4.3 0.3l47.2-41.7q0-0.1 0-0.1-0.2 0.3-0.4 0.5l-46.4 42.7c-1.3 1.2-3.2 1.1-4.3-0.2-0.5-0.6-0.8-1.4-0.8-2.2q0.2 0.4 0.4 0.7z"/>
					</g>
					<g id="&lt;Group&gt;">
						<path id="&lt;Path&gt;" class="s0" d="m1096.4 356c10.3 2.5 19.8-0.5 21.3-6.6 1.5-6.2-5.6-13.2-15.8-15.7-10.3-2.5-19.8 0.4-21.3 6.6-1.5 6.2 5.6 13.2 15.8 15.7z"/>
						<path id="&lt;Path&gt;" class="s1" d="m1096.4 356c-10.2-2.5-17.3-9.5-15.8-15.7q0.1-0.5 0.3-1 0 0 0 0c-1.5 6.2 5.6 13.2 15.8 15.7 9.7 2.4 18.7-0.1 21-5.6-1.5 6.1-11.1 9.1-21.3 6.6z"/>
					</g>
					<g id="&lt;Group&gt;">
						<g id="&lt;Group&gt;">
							<path id="&lt;Path&gt;" class="s2" d="m1067.2 335.5c-0.3 0.2-0.5 0.5-0.6 0.9-0.1 0.8 0.4 1.7 1.2 1.8l29.5 6.7c0.8 0.2 1.5-0.3 1.6-1.1 0.2-0.8-0.4-1.7-1.2-1.8l-29.4-6.7c-0.4-0.1-0.8 0-1.1 0.2z"/>
						</g>
						<path id="&lt;Path&gt;" class="s3" d="m1066.6 336.4c-0.1 0.9 0.4 1.7 1.2 1.8l29.5 6.7q0 0 0 0-0.2 0-0.3 0l-29.5-6.1c-0.8-0.2-1.4-1-1.3-1.8 0.1-0.4 0.2-0.7 0.5-0.9q-0.1 0.1-0.1 0.3z"/>
					</g>
					<g id="&lt;Group&gt;">
						<path id="&lt;Path&gt;" class="s0" d="m1017 339.6c-10.6 1.7-20.2-3.2-21.6-10.9-1.4-7.7 6-15.3 16.6-17 10.5-1.7 20.2 3.2 21.5 10.9 1.4 7.7-6 15.3-16.5 17z"/>
						<path id="&lt;Path&gt;" class="s1" d="m1017 339.6c10.5-1.7 17.9-9.3 16.5-17q-0.1-0.6-0.3-1.2 0 0 0 0c1.4 7.7-6 15.3-16.5 17-10 1.6-19.2-2.7-21.3-9.6 1.4 7.6 11 12.5 21.6 10.8z"/>
					</g>
					<g id="&lt;Group&gt;">
						<g id="&lt;Group&gt;">
							<path id="&lt;Path&gt;" class="s2" d="m1048 319.4c0.3 0.3 0.6 0.7 0.6 1.2 0.2 0.9-0.3 1.8-1.1 1.9l-28.9 4.6c-0.8 0.1-1.6-0.6-1.7-1.6-0.2-0.9 0.4-1.8 1.1-1.9l28.9-4.6c0.4 0 0.8 0.1 1.1 0.4z"/>
						</g>
						<path id="&lt;Path&gt;" class="s3" d="m1048.6 320.6c0.2 0.9-0.3 1.8-1.1 1.9l-28.9 4.6q0 0 0 0 0.1 0 0.3 0l29-3.9c0.8-0.1 1.3-1 1.2-1.9-0.1-0.5-0.3-0.9-0.6-1.2q0.1 0.2 0.1 0.5z"/>
					</g>
					<g id="&lt;Group&gt;">
						<g id="&lt;Group&gt;">
							<path id="&lt;Path&gt;" class="s2" d="m1055.6 332.9c0.8 0 1.6-0.3 2.2-0.9 1.2-1.2 1.2-3.2 0-4.5l-43.4-45.4c-1.2-1.3-3.1-1.3-4.3 0-1.1 1.2-1.1 3.2 0 4.5l43.4 45.4c0.6 0.6 1.4 0.9 2.1 0.9z"/>
						</g>
						<path id="&lt;Path&gt;" class="s3" d="m1057.8 332c1.2-1.2 1.2-3.2 0-4.5l-43.4-45.4q0 0 0-0.1 0.3 0.2 0.5 0.5l44.2 44.6c1.2 1.2 1.2 3.2 0.1 4.4-0.6 0.6-1.3 0.9-2 1q0.3-0.2 0.6-0.5z"/>
					</g>
					<g id="&lt;Group&gt;">
						<path id="&lt;Path&gt;" class="s0" d="m1027.7 357.6c12.9 13.1 17.1 30 9.2 37.8-7.9 7.8-24.8 3.6-37.8-9.5-13-13.1-17.1-30.1-9.2-37.9 7.9-7.8 24.8-3.5 37.8 9.6z"/>
						<path id="&lt;Path&gt;" class="s1" d="m1027.7 357.6c-13-13.1-29.9-17.4-37.8-9.6q-0.7 0.7-1.2 1.4 0 0 0 0c7.9-7.8 24.8-3.5 37.8 9.5 12.2 12.4 16.6 28.2 10.4 36.5 7.9-7.8 3.7-24.7-9.2-37.8z"/>
					</g>
					<g id="&lt;Group&gt;">
						<g id="&lt;Group&gt;">
							<path id="&lt;Path&gt;" class="s2" d="m1056.3 290.6c-0.7 0-1.5-0.3-2-0.9-1.2-1.2-1.1-3.1 0.1-4.2l43.9-41.4c1.2-1.2 3.1-1.1 4.2 0.1 1.1 1.2 1.1 3.1-0.1 4.2l-43.9 41.4c-0.6 0.6-1.4 0.8-2.2 0.8z"/>
						</g>
						<path id="&lt;Path&gt;" class="s3" d="m1102.5 244.2q-0.3-0.4-0.8-0.6 0.1 0.1 0.2 0.2c1.1 1.2 1 3.1-0.2 4.2l-44.5 40.7c-0.6 0.6-1.4 0.8-2.2 0.8q-0.6 0-1.1-0.3 0.2 0.3 0.4 0.5c0.5 0.6 1.3 0.9 2 0.9 0.8 0 1.6-0.2 2.2-0.8l43.9-41.4c1.2-1.1 1.2-3 0.1-4.2z"/>
					</g>
				</g>
				<g id="&lt;Group&gt;">
					<path id="&lt;Path&gt;" class="s4" d="m1117 481.5c0 28.8-29 52.2-64.9 52.2-35.8 0-64.9-23.4-64.9-52.2 0-28.8 29.1-52.2 64.9-52.2 35.9 0 64.9 23.4 64.9 52.2z"/>
					<g id="&lt;Group&gt;">
						<g id="&lt;Group&gt;">
							<path id="&lt;Path&gt;" class="s5" d="m1120.6 593.6h-132.9c-1.6 0-2.9 1.3-2.9 2.9 0 1.6 1.3 2.9 2.9 2.9h132.9c1.6 0 2.9-1.3 2.9-2.9 0-1.6-1.3-2.9-2.9-2.9z"/>
							<path id="&lt;Path&gt;" class="s5" d="m1097.8 608.6h-77.4c-1.6 0-2.9 1.3-2.9 2.9 0 1.6 1.3 2.9 2.9 2.9h77.4c1.6 0 2.9-1.3 2.9-2.9 0-1.6-1.3-2.9-2.9-2.9z"/>
							<path id="&lt;Path&gt;" class="s5" d="m971.9 593.6h-10.8c-1.6 0-2.9 1.3-2.9 2.9 0 1.6 1.3 2.9 2.9 2.9h10.8c1.6 0 2.9-1.3 2.9-2.9 0-1.6-1.3-2.9-2.9-2.9z"/>
							<path id="&lt;Path&gt;" class="s5" d="m1143.2 593.6h-10.8c-1.6 0-2.9 1.3-2.9 2.9 0 1.6 1.3 2.9 2.9 2.9h10.8c1.6 0 2.9-1.3 2.9-2.9 0-1.6-1.3-2.9-2.9-2.9z"/>
						</g>
						<g id="&lt;Group&gt;">
							<path id="&lt;Path&gt;" class="s6" d="m1124.5 476l-1 9.7-9.2 87.6c-1.2 11.6-10.9 20.3-22.5 20.3h-79.4c-11.6 0-21.3-8.7-22.5-20.3l-9.2-87.6-1-9.7z"/>
							<path id="&lt;Path&gt;" class="s7" d="m1124.5 476l-1 9.7h-142.8l-1-9.7z"/>
							<path id="&lt;Path&gt;" class="s8" d="m1136.7 482.7h-169.1c-1.6 0-2.8-1.3-2.8-2.8v-28.9c0-1.5 1.2-2.7 2.8-2.7h169.1c1.5 0 2.7 1.2 2.7 2.7v28.9c0 1.5-1.2 2.8-2.7 2.8z"/>
						</g>
					</g>
				</g>
			</g>
		</g>
	</g>
</svg>