<svg xmlns="http://www.w3.org/2000/svg" version="1.2" viewBox="500.8 318.6 187.9 295.8">
	<title>iStock-688654534</title>
	<style>
		.s0 { fill: #bed22f } 
		.s1 { fill: #b6c92d } 
		.s2 { fill: #98b82f } 
		.s3 { fill: #95b52e } 
		.s4 { fill: #8b7b4b } 
		.s5 { fill: #231f20 } 
		.s6 { fill: #f8aa8e } 
		.s7 { fill: #e47f63 } 
		.s8 { fill: #f4876a } 
	</style>
	<g id="Layer 1">
		<g id="&lt;Group&gt;">
			<g id="5">
				<g id="&lt;Group&gt;">
					<g id="&lt;Group&gt;">
						<path id="&lt;Path&gt;" class="s0" d="m611.7 343.9c0.1 14-7.3 25.5-16.6 25.6-9.3 0.1-17-11.3-17.1-25.3-0.2-14 7.3-25.5 16.6-25.6 9.3-0.1 16.9 11.2 17.1 25.3z"/>
						<path id="&lt;Path&gt;" class="s1" d="m597.9 319.1c7.1 2.9 12.5 12.7 12.6 24.3 0.1 14.1-7.3 25.5-16.6 25.6q-1.7 0-3.3-0.4c1.4 0.5 2.9 0.9 4.5 0.9 9.3-0.1 16.7-11.6 16.6-25.6-0.1-12.4-6.1-22.6-13.8-24.8z"/>
					</g>
					<g id="&lt;Group&gt;">
						<g id="&lt;Group&gt;">
							<path id="&lt;Path&gt;" class="s2" d="m596.8 350.8v135.2c0 1.2-0.9 2.1-2.1 2.1-1.2 0-2.1-0.9-2.1-2.1v-135.2c0-1 0.7-1.8 1.6-2.1q0.1 0 0.2 0 0.1 0 0.3 0c1.2 0 2.1 0.9 2.1 2.1z"/>
						</g>
						<path id="&lt;Path&gt;" class="s3" d="m596.8 350.8v135.2c0 1.2-0.9 2.1-2.1 2.1q-0.3 0-0.5 0c0.9-0.2 1.6-1.1 1.6-2.1v-135.2c0-1-0.7-1.8-1.6-2.1q0.1 0 0.2 0 0.1 0 0.3 0c1.2 0 2.1 0.9 2.1 2.1z"/>
					</g>
					<g id="&lt;Group&gt;">
						<g id="&lt;Group&gt;">
							<path id="&lt;Path&gt;" class="s0" d="m640.4 404c-10.4 9.1-23.7 11-29.8 4.1-6-6.9-2.5-19.9 7.9-29 10.4-9.2 23.7-11 29.8-4.1 6 6.9 2.5 19.8-7.9 29z"/>
							<path id="&lt;Path&gt;" class="s1" d="m650.1 377.7c2.4 7.3-1.5 17.5-10.1 25.1-10.4 9.2-23.7 11-29.8 4.1q-1.1-1.2-1.8-2.8c0.5 1.5 1.2 2.8 2.2 4 6.1 6.9 19.4 5 29.8-4.1 9.1-8 13-19 9.7-26.3z"/>
						</g>
						<g id="&lt;Group&gt;">
							<g id="&lt;Group&gt;">
								<path id="&lt;Path&gt;" class="s2" d="m593.8 419.9c-0.1 0.5 0 0.9 0.3 1.3 0.6 0.8 1.7 0.9 2.5 0.3l27.9-23.1c0.7-0.7 0.9-1.8 0.3-2.6-0.6-0.8-1.7-0.9-2.5-0.3l-27.9 23.2c-0.4 0.3-0.6 0.7-0.6 1.2z"/>
							</g>
							<path id="&lt;Path&gt;" class="s3" d="m594.1 421.2c0.6 0.8 1.7 0.9 2.5 0.3l27.9-23.1q0-0.1 0-0.1-0.1 0.2-0.3 0.3l-27.4 23.7c-0.8 0.7-1.9 0.6-2.5-0.2-0.3-0.4-0.4-0.8-0.4-1.3q0.1 0.2 0.2 0.4z"/>
						</g>
					</g>
					<g id="&lt;Group&gt;">
						<path id="&lt;Path&gt;" class="s0" d="m571.6 359.2c12 12.1 15.8 27.8 8.5 35-7.2 7.2-22.9 3.3-34.8-8.8-12-12.1-15.8-27.8-8.6-35 7.3-7.2 22.9-3.3 34.9 8.8z"/>
						<path id="&lt;Path&gt;" class="s1" d="m571.6 359.2c-12-12.1-27.6-16-34.9-8.8q-0.6 0.6-1.1 1.3 0 0 0 0c7.3-7.3 22.9-3.3 34.9 8.8 11.4 11.4 15.4 26 9.7 33.7 7.2-7.3 3.4-22.9-8.6-35z"/>
					</g>
					<g id="&lt;Group&gt;">
						<g id="&lt;Group&gt;">
							<path id="&lt;Path&gt;" class="s2" d="m594.3 411.8c0.5 0 1-0.2 1.3-0.6 0.8-0.8 0.8-2 0-2.8l-27.2-28.6c-0.7-0.7-1.9-0.7-2.7 0-0.7 0.8-0.7 2.1 0 2.9l27.2 28.5c0.4 0.4 0.9 0.6 1.4 0.6z"/>
						</g>
						<path id="&lt;Path&gt;" class="s3" d="m596.8 408.6v1.8q-0.1 0.3-0.3 0.5-0.3 0.3-0.7 0.5-0.3 0.1-0.5 0.1 0.1-0.1 0.1-0.1 0.1-0.1 0.2-0.2 0.1-0.1 0.2-0.3c0.5-0.6 0.5-1.6 0-2.3q-0.1-0.1-0.2-0.2l-3-3.2-24.2-25.4q0.2 0.1 0.3 0.3l23.9 24 3.2 3.3 0.7 0.7q0.2 0.2 0.3 0.5z"/>
					</g>
					<g id="&lt;Group&gt;">
						<path id="&lt;Path&gt;" class="s0" d="m632.5 369.1c-7.4 6.9-17.1 8.5-21.7 3.7-4.5-4.9-2.3-14.5 5.1-21.4 7.3-6.9 17-8.5 21.6-3.7 4.6 4.9 2.3 14.5-5 21.4z"/>
						<path id="&lt;Path&gt;" class="s1" d="m638.9 349.7c1.9 5.2-0.7 12.8-6.8 18.5-7.4 7-17 8.6-21.6 3.7q-0.9-0.9-1.4-2c0.4 1.1 1 2 1.7 2.9 4.6 4.8 14.3 3.2 21.7-3.7 6.4-6.1 9-14.2 6.4-19.4z"/>
					</g>
					<g id="&lt;Group&gt;">
						<g id="&lt;Group&gt;">
							<path id="&lt;Path&gt;" class="s2" d="m595.2 388c-0.4 0-0.8-0.2-1.2-0.6-0.6-0.6-0.6-1.7 0.1-2.4l25.3-23.8c0.7-0.7 1.8-0.6 2.4 0 0.7 0.7 0.7 1.8 0 2.5l-25.3 23.8c-0.4 0.3-0.8 0.5-1.3 0.5z"/>
						</g>
						<path id="&lt;Path&gt;" class="s3" d="m621.8 361.2q-0.2-0.2-0.4-0.3 0 0.1 0.1 0.1c0.6 0.7 0.6 1.8-0.1 2.4l-25.7 23.5c-0.3 0.3-0.8 0.5-1.2 0.4q-0.3 0-0.7-0.1 0.1 0.1 0.2 0.2c0.4 0.4 0.8 0.6 1.2 0.6 0.5 0 0.9-0.2 1.3-0.5l25.3-23.8c0.7-0.7 0.7-1.8 0-2.5z"/>
					</g>
				</g>
				<g id="&lt;Group&gt;">
					<path id="&lt;Path&gt;" class="s4" d="m659.6 481.5c0 28.8-29 52.2-64.9 52.2-35.8 0-64.9-23.4-64.9-52.2 0-28.8 29.1-52.2 64.9-52.2 35.9 0 64.9 23.4 64.9 52.2z"/>
					<g id="&lt;Group&gt;">
						<g id="&lt;Group&gt;">
							<path id="&lt;Path&gt;" class="s5" d="m663.2 593.6h-132.9c-1.6 0-2.9 1.3-2.9 2.9 0 1.6 1.3 2.9 2.9 2.9h132.9c1.6 0 2.9-1.3 2.9-2.9 0-1.6-1.3-2.9-2.9-2.9z"/>
							<path id="&lt;Path&gt;" class="s5" d="m640.4 608.6h-77.4c-1.6 0-2.9 1.3-2.9 2.9 0 1.6 1.3 2.9 2.9 2.9h77.4c1.6 0 2.9-1.3 2.9-2.9 0-1.6-1.3-2.9-2.9-2.9z"/>
							<path id="&lt;Path&gt;" class="s5" d="m514.5 593.6h-10.8c-1.6 0-2.9 1.3-2.9 2.9 0 1.6 1.3 2.9 2.9 2.9h10.8c1.6 0 2.9-1.3 2.9-2.9 0-1.6-1.3-2.9-2.9-2.9z"/>
							<path id="&lt;Path&gt;" class="s5" d="m685.8 593.6h-10.8c-1.6 0-2.9 1.3-2.9 2.9 0 1.6 1.3 2.9 2.9 2.9h10.8c1.6 0 2.9-1.3 2.9-2.9 0-1.6-1.3-2.9-2.9-2.9z"/>
						</g>
						<g id="&lt;Group&gt;">
							<path id="&lt;Path&gt;" class="s6" d="m667.2 476l-1.1 9.7-9.1 87.6c-1.3 11.6-11 20.3-22.6 20.3h-79.4c-11.5 0-21.3-8.7-22.5-20.3l-9.2-87.6-1-9.7z"/>
							<path id="&lt;Path&gt;" class="s7" d="m667.2 476l-1.1 9.7h-142.8l-1-9.7z"/>
							<path id="&lt;Path&gt;" class="s8" d="m679.3 482.7h-169.1c-1.5 0-2.8-1.3-2.8-2.8v-28.9c0-1.5 1.3-2.7 2.8-2.7h169.1c1.5 0 2.7 1.2 2.7 2.7v28.9c0 1.5-1.2 2.8-2.7 2.8z"/>
						</g>
					</g>
				</g>
			</g>
		</g>
	</g>
</svg>