<svg xmlns="http://www.w3.org/2000/svg" version="1.2" viewBox="46.7 360.4 187.8 254">
	<title>iStock-688654534</title>
	<style>
		.s0 { fill: #8b7b4b } 
		.s1 { fill: #231f20 } 
		.s2 { fill: #f8aa8e } 
		.s3 { fill: #e47f63 } 
		.s4 { fill: #f4876a } 
		.s5 { fill: #cba86b } 
		.s6 { fill: #c3a267 } 
		.s7 { fill: #b79961 } 
	</style>
	<g id="Layer 1">
		<g id="&lt;Group&gt;">
			<g id="1">
				<g id="&lt;Group&gt;">
					<path id="&lt;Path&gt;" class="s0" d="m205.5 481.5c0 28.8-29 52.2-64.9 52.2-35.8 0-64.9-23.4-64.9-52.2 0-28.8 29.1-52.2 64.9-52.2 35.9 0 64.9 23.4 64.9 52.2z"/>
					<g id="&lt;Group&gt;">
						<g id="&lt;Group&gt;">
							<path id="&lt;Path&gt;" class="s1" d="m209 593.6h-132.9c-1.6 0-2.8 1.3-2.8 2.9 0 1.6 1.2 2.9 2.8 2.9h132.9c1.6 0 2.9-1.3 2.9-2.9 0-1.6-1.3-2.9-2.9-2.9z"/>
							<path id="&lt;Path&gt;" class="s1" d="m186.3 608.6h-77.4c-1.6 0-2.9 1.3-2.9 2.9 0 1.6 1.3 2.9 2.9 2.9h77.4c1.6 0 2.9-1.3 2.9-2.9 0-1.6-1.3-2.9-2.9-2.9z"/>
							<path id="&lt;Path&gt;" class="s1" d="m60.4 593.6h-10.8c-1.6 0-2.9 1.3-2.9 2.9 0 1.6 1.3 2.9 2.9 2.9h10.8c1.5 0 2.8-1.3 2.8-2.9 0-1.6-1.3-2.9-2.8-2.9z"/>
							<path id="&lt;Path&gt;" class="s1" d="m231.6 593.6h-10.7c-1.6 0-2.9 1.3-2.9 2.9 0 1.6 1.3 2.9 2.9 2.9h10.7c1.6 0 2.9-1.3 2.9-2.9 0-1.6-1.3-2.9-2.9-2.9z"/>
						</g>
						<g id="&lt;Group&gt;">
							<path id="&lt;Path&gt;" class="s2" d="m213 476l-1 9.7-9.2 87.6c-1.2 11.6-10.9 20.3-22.5 20.3h-79.4c-11.6 0-21.3-8.7-22.5-20.3l-9.2-87.6-1-9.7z"/>
							<path id="&lt;Path&gt;" class="s3" d="m213 476l-1 9.7h-142.8l-1-9.7z"/>
							<path id="&lt;Path&gt;" class="s4" d="m225.2 482.7h-169.2c-1.5 0-2.7-1.3-2.7-2.8v-28.9c0-1.5 1.2-2.7 2.7-2.7h169.2c1.5 0 2.7 1.2 2.7 2.7v28.9c0 1.5-1.2 2.8-2.7 2.8z"/>
						</g>
					</g>
				</g>
				<g id="&lt;Group&gt;">
					<path id="&lt;Path&gt;" class="s5" d="m120.7 390.5c-1.2-15.8 6.7-29.2 17.6-30 10.9-0.8 23.2 11.3 21.8 27.1-1.3 15.7-20.1 31.9-20.1 31.9 0 0-18.2-13.3-19.3-29z"/>
					<path id="&lt;Path&gt;" class="s6" d="m156.4 385.2c0.4 15.8-16.5 33.9-16.5 33.9 0 0-0.7-0.4-1.7-1.1 1.1 1 1.8 1.5 1.8 1.5 0 0 18.8-16.2 20.1-31.9 1.4-15.8-10.9-27.9-21.8-27.1q-0.7 0-1.4 0.1c9.5 1.6 19.1 11.3 19.5 24.6z"/>
					<path id="&lt;Path&gt;" class="s7" d="m146.2 369.2l-3.5-2.4c-0.1-0.1-0.3 0-0.3 0.2l1.2 5.5c0.4 1.8 0.8 3.8-0.2 5.4-1.3-2.7-2.3-5.6-2.8-8.6-0.4-2.2-0.7-4.6-2.4-6-0.1-0.1-0.3 0-0.3 0.1-0.8 2.4-1.1 4.9-0.7 7.3-1.3-1.7-2.2-3.8-2.5-6-0.1-0.4-0.6-0.6-0.9-0.3-2 2.3-2.9 5.5-2.3 8.4q-0.8-2.6-1.6-5.2-0.2-0.9-0.3-1.9c-0.2-1.4 1.5-2.7 2.5-3.3 2.2-1.3 4.5-1.9 7-2 1.6 0 3.2 0.2 4.7 0.7 2.5 0.8 4.4 1.7 6.7 3.6-1.8 0.1-3.5-0.2-5.1-0.9-0.3-0.1-0.7 0.2-0.8 0.5v1c-0.1 0.5 0.1 1.1 0.6 1.4 0.8 0.5 1.2 1.6 1 2.5z"/>
					<g id="&lt;Group&gt;">
						<path id="&lt;Path&gt;" class="s6" d="m143 416.6q0.1-0.2 0.1-0.4 0 0 0 0 0 0.2-0.1 0.4z"/>
						<path id="&lt;Path&gt;" class="s6" d="m143.2 409.9c-0.4-0.7-1.1-1.3-1.9-1.2q0.2 2.1 0.4 4.2c0 0.9 0.1 1.8-0.1 2.7-0.2 0.7-0.6 1.5-0.4 2.2l-0.3 0.9c0.3-1.1 1.3-1.8 2.2-2.5q0.4-2 0.4-4c0-0.8 0-1.6-0.3-2.3z"/>
						<path id="&lt;Path&gt;" class="s6" d="m147.1 406q-0.3 1.8-0.6 3.5c-0.1 0.3-0.2 0.7-0.4 1-0.2 0.2-0.6 0.4-0.9 0.2q-0.2-4.2-1-8.3c0.1 4.6-0.3 9.3-1.1 13.8 0.4-0.3 0.7-0.6 1-0.9 0.7-0.8 1-1.7 1.3-2.6q0.7-1.8 1.3-3.7c0.4-0.9 0.7-2 0.4-3z"/>
					</g>
				</g>
			</g>
		</g>
	</g>
</svg>